<svg width="100" height="100" viewBox="0 0 100 100" fill="none" xmlns="http://www.w3.org/2000/svg">
<path d="M50 100C63.2608 100 75.9785 94.7322 85.3553 85.3553C94.7322 75.9785 100 63.2608 100 50C100 36.7392 94.7322 24.0215 85.3553 14.6447C75.9785 5.26784 63.2608 0 50 0C36.7392 0 24.0215 5.26784 14.6447 14.6447C5.26784 24.0215 0 36.7392 0 50C0 63.2608 5.26784 75.9785 14.6447 85.3553C24.0215 94.7322 36.7392 100 50 100ZM25.9125 32.1625C26.2028 31.8715 26.5476 31.6406 26.9273 31.483C27.3069 31.3255 27.714 31.2444 28.125 31.2444C28.536 31.2444 28.9431 31.3255 29.3227 31.483C29.7024 31.6406 30.0472 31.8715 30.3375 32.1625L34.375 36.2063L38.4125 32.1625C38.703 31.872 39.048 31.6415 39.4276 31.4842C39.8072 31.327 40.2141 31.2461 40.625 31.2461C41.0359 31.2461 41.4428 31.327 41.8224 31.4842C42.202 31.6415 42.547 31.872 42.8375 32.1625C43.1281 32.453 43.3585 32.798 43.5158 33.1776C43.673 33.5572 43.7539 33.9641 43.7539 34.375C43.7539 34.7859 43.673 35.1928 43.5158 35.5724C43.3585 35.952 43.1281 36.297 42.8375 36.5875L38.7937 40.625L42.8375 44.6625C43.1281 44.953 43.3585 45.298 43.5158 45.6776C43.673 46.0572 43.7539 46.4641 43.7539 46.875C43.7539 47.2859 43.673 47.6928 43.5158 48.0724C43.3585 48.452 43.1281 48.797 42.8375 49.0875C42.547 49.3781 42.202 49.6085 41.8224 49.7658C41.4428 49.923 41.0359 50.0039 40.625 50.0039C40.2141 50.0039 39.8072 49.923 39.4276 49.7658C39.048 49.6085 38.703 49.3781 38.4125 49.0875L34.375 45.0437L30.3375 49.0875C30.047 49.3781 29.702 49.6085 29.3224 49.7658C28.9428 49.923 28.5359 50.0039 28.125 50.0039C27.7141 50.0039 27.3072 49.923 26.9276 49.7658C26.548 49.6085 26.203 49.3781 25.9125 49.0875C25.622 48.797 25.3915 48.452 25.2342 48.0724C25.077 47.6928 24.9961 47.2859 24.9961 46.875C24.9961 46.4641 25.077 46.0572 25.2342 45.6776C25.3915 45.298 25.622 44.953 25.9125 44.6625L29.9563 40.625L25.9125 36.5875C25.6215 36.2972 25.3906 35.9524 25.233 35.5727C25.0755 35.1931 24.9944 34.786 24.9944 34.375C24.9944 33.964 25.0755 33.5569 25.233 33.1773C25.3906 32.7976 25.6215 32.4528 25.9125 32.1625ZM57.1625 32.1625C57.4528 31.8715 57.7976 31.6406 58.1773 31.483C58.5569 31.3255 58.964 31.2444 59.375 31.2444C59.786 31.2444 60.1931 31.3255 60.5727 31.483C60.9524 31.6406 61.2972 31.8715 61.5875 32.1625L65.625 36.2063L69.6625 32.1625C70.2493 31.5757 71.0452 31.2461 71.875 31.2461C72.7048 31.2461 73.5007 31.5757 74.0875 32.1625C74.6743 32.7493 75.0039 33.5452 75.0039 34.375C75.0039 35.2048 74.6743 36.0007 74.0875 36.5875L70.0437 40.625L74.0875 44.6625C74.6743 45.2493 75.0039 46.0452 75.0039 46.875C75.0039 47.7048 74.6743 48.5007 74.0875 49.0875C73.5007 49.6743 72.7048 50.0039 71.875 50.0039C71.0452 50.0039 70.2493 49.6743 69.6625 49.0875L65.625 45.0437L61.5875 49.0875C61.297 49.3781 60.952 49.6085 60.5724 49.7658C60.1928 49.923 59.7859 50.0039 59.375 50.0039C58.9641 50.0039 58.5572 49.923 58.1776 49.7658C57.798 49.6085 57.453 49.3781 57.1625 49.0875C56.8719 48.797 56.6415 48.452 56.4842 48.0724C56.327 47.6928 56.2461 47.2859 56.2461 46.875C56.2461 46.4641 56.327 46.0572 56.4842 45.6776C56.6415 45.298 56.8719 44.953 57.1625 44.6625L61.2063 40.625L57.1625 36.5875C56.8715 36.2972 56.6406 35.9524 56.483 35.5727C56.3255 35.1931 56.2444 34.786 56.2444 34.375C56.2444 33.964 56.3255 33.5569 56.483 33.1773C56.6406 32.7976 56.8715 32.4528 57.1625 32.1625ZM50 81.25C46.6848 81.25 43.5054 79.933 41.1612 77.5888C38.817 75.2446 37.5 72.0652 37.5 68.75C37.5 65.4348 38.817 62.2554 41.1612 59.9112C43.5054 57.567 46.6848 56.25 50 56.25C53.3152 56.25 56.4946 57.567 58.8388 59.9112C61.183 62.2554 62.5 65.4348 62.5 68.75C62.5 72.0652 61.183 75.2446 58.8388 77.5888C56.4946 79.933 53.3152 81.25 50 81.25Z" fill="black"/>
</svg>
