<svg width="100" height="100" viewBox="0 0 100 100" fill="none" xmlns="http://www.w3.org/2000/svg">
<path d="M50 100C63.2608 100 75.9785 94.7322 85.3553 85.3553C94.7322 75.9785 100 63.2608 100 50C100 36.7392 94.7322 24.0215 85.3553 14.6447C75.9785 5.26784 63.2608 0 50 0C36.7392 0 24.0215 5.26784 14.6447 14.6447C5.26784 24.0215 0 36.7392 0 50C0 63.2608 5.26784 75.9785 14.6447 85.3553C24.0215 94.7322 36.7392 100 50 100ZM43.75 40.625C43.75 45.8 40.95 50 37.5 50C34.05 50 31.25 45.8 31.25 40.625C31.25 35.45 34.05 31.25 37.5 31.25C40.95 31.25 43.75 35.45 43.75 40.625ZM26.7812 59.7938C27.499 59.3794 28.352 59.2671 29.1525 59.4816C29.953 59.6961 30.6356 60.2198 31.05 60.9375C32.9694 64.2646 35.7316 67.0273 39.0583 68.9474C42.385 70.8675 46.1589 71.8773 50 71.875C53.8411 71.8773 57.615 70.8675 60.9417 68.9474C64.2684 67.0273 67.0306 64.2646 68.95 60.9375C69.1537 60.5792 69.4262 60.2648 69.752 60.0123C70.0777 59.7598 70.4501 59.5742 70.8478 59.4662C71.2456 59.3582 71.6607 59.33 72.0694 59.3831C72.4781 59.4362 72.8722 59.5697 73.2291 59.7757C73.5861 59.9818 73.8987 60.2564 74.149 60.5838C74.3994 60.9112 74.5825 61.2849 74.6878 61.6833C74.7932 62.0817 74.8186 62.4971 74.7628 62.9054C74.707 63.3137 74.5709 63.707 74.3625 64.0625C71.8945 68.3397 68.3434 71.8914 64.0666 74.36C59.7898 76.8287 54.9382 78.1272 50 78.125C45.0618 78.1272 40.2102 76.8287 35.9334 74.36C31.6566 71.8914 28.1055 68.3397 25.6375 64.0625C25.2231 63.3448 25.1108 62.4918 25.3253 61.6913C25.5398 60.8907 26.0635 60.2082 26.7812 59.7938ZM62.5 50C59.05 50 56.25 45.8 56.25 40.625C56.25 35.45 59.05 31.25 62.5 31.25C65.95 31.25 68.75 35.45 68.75 40.625C68.75 45.8 65.95 50 62.5 50Z" fill="black"/>
</svg>
