<svg width="100" height="100" viewBox="0 0 100 100" fill="none" xmlns="http://www.w3.org/2000/svg">
<path d="M50 100C63.2608 100 75.9785 94.7322 85.3553 85.3553C94.7322 75.9785 100 63.2608 100 50C100 36.7392 94.7322 24.0215 85.3553 14.6447C75.9785 5.26784 63.2608 0 50 0C36.7392 0 24.0215 5.26784 14.6447 14.6447C5.26784 24.0215 0 36.7392 0 50C0 63.2608 5.26784 75.9785 14.6447 85.3553C24.0215 94.7322 36.7392 100 50 100ZM43.75 40.625C43.75 45.8 40.95 50 37.5 50C34.05 50 31.25 45.8 31.25 40.625C31.25 35.45 34.05 31.25 37.5 31.25C40.95 31.25 43.75 35.45 43.75 40.625ZM26.7812 77.7062C26.0635 77.2918 25.5398 76.6093 25.3253 75.8087C25.1108 75.0082 25.2231 74.1552 25.6375 73.4375C28.1055 69.1603 31.6566 65.6086 35.9334 63.14C40.2102 60.6713 45.0618 59.3728 50 59.375C54.9379 59.374 59.789 60.6731 64.0656 63.1417C68.3422 65.6102 71.8935 69.1611 74.3625 73.4375C74.7704 74.1549 74.8779 75.0044 74.6617 75.8008C74.4455 76.5972 73.9231 77.2757 73.2084 77.6884C72.4938 78.101 71.6449 78.2142 70.8471 78.0032C70.0493 77.7923 69.3673 77.2744 68.95 76.5625C67.0306 73.2354 64.2684 70.4727 60.9417 68.5526C57.615 66.6325 53.8411 65.6227 50 65.625C46.1589 65.6227 42.385 66.6325 39.0583 68.5526C35.7316 70.4727 32.9694 73.2354 31.05 76.5625C30.6356 77.2802 29.953 77.8039 29.1525 78.0184C28.352 78.2329 27.499 78.1206 26.7812 77.7062ZM62.5 50C59.05 50 56.25 45.8 56.25 40.625C56.25 35.45 59.05 31.25 62.5 31.25C65.95 31.25 68.75 35.45 68.75 40.625C68.75 45.8 65.95 50 62.5 50Z" fill="black"/>
</svg>
